<?xml version="1.0" encoding="UTF-8" standalone="no"?><!DOCTYPE svg PUBLIC "-//W3C//DTD SVG 1.1//EN" "http://www.w3.org/Graphics/SVG/1.1/DTD/svg11.dtd"><svg width="100%" height="100%" viewBox="0 0 200 200" version="1.1" xmlns="http://www.w3.org/2000/svg" xmlns:xlink="http://www.w3.org/1999/xlink" xml:space="preserve" xmlns:serif="http://www.serif.com/" style="fill-rule:evenodd;clip-rule:evenodd;stroke-linejoin:round;stroke-miterlimit:2;"><path d="M137.083,65l0,-27.5l-74.166,0l-0,27.5l-12.5,0l-0,-40l99.166,0l0,40l-12.5,0Zm-107.916,12.5l141.666,0l-141.666,0Zm124.791,19.792c1.667,-0 3.125,-0.625 4.375,-1.875c1.25,-1.25 1.875,-2.709 1.875,-4.375c0,-1.667 -0.625,-3.125 -1.875,-4.375c-1.25,-1.25 -2.708,-1.875 -4.375,-1.875c-1.666,-0 -3.125,0.625 -4.375,1.875c-1.25,1.25 -1.875,2.708 -1.875,4.375c0,1.666 0.625,3.125 1.875,4.375c1.25,1.25 2.709,1.875 4.375,1.875Zm-16.875,65.208l0,-40l-74.166,0l-0,40l74.166,0Zm12.5,12.5l-99.166,0l-0,-36.667l-33.75,0l-0,-51.25c-0,-6.257 2.118,-11.501 6.354,-15.734c4.236,-4.233 9.479,-6.349 15.729,-6.349l122.5,0c6.257,0 11.502,2.116 15.734,6.349c4.233,4.233 6.349,9.477 6.349,15.734l0,51.25l-33.75,0l0,36.667Zm21.25,-49.167l0,-38.794c0,-2.748 -0.918,-5.025 -2.755,-6.831c-1.837,-1.805 -4.113,-2.708 -6.828,-2.708l-122.5,0c-2.715,0 -4.991,0.918 -6.828,2.755c-1.837,1.837 -2.755,4.113 -2.755,6.828l-0,38.75l21.25,0l-0,-15.833l99.166,0l0,15.833l21.25,0Z" style="fill:#808080;fill-rule:nonzero;"/></svg>