<?xml version="1.0" encoding="UTF-8" standalone="no"?><!DOCTYPE svg PUBLIC "-//W3C//DTD SVG 1.1//EN" "http://www.w3.org/Graphics/SVG/1.1/DTD/svg11.dtd"><svg width="100%" height="100%" viewBox="0 0 6000 6000" version="1.1" xmlns="http://www.w3.org/2000/svg" xmlns:xlink="http://www.w3.org/1999/xlink" xml:space="preserve" xmlns:serif="http://www.serif.com/" style="fill-rule:evenodd;clip-rule:evenodd;stroke-linecap:round;stroke-miterlimit:10;"><g id="A"><path d="M3381.23,1588.22c-105.072,291.59 -444.089,1267.48 -546.875,1581.68c-4.002,12.236 -9.691,23.824 -16.921,34.477c-126.517,186.432 -502.77,319.194 -852.059,315.398c-34.78,-0.38 -49.387,-31.962 -52.48,-66.605c-32.463,-363.66 830.917,-1393.36 1436.91,-1885.55c15.787,-12.823 38.319,1.47 31.427,20.599m531.666,1198.16c282.082,-1412.68 1386.86,-2548.45 916.838,-2746.51c-1032.16,-338.535 -3720.06,1531.89 -3772.33,3598.72c-36.01,1423.92 399.646,2351.37 475.162,2360.71c97.094,12.015 129.971,-132.567 435.222,-185.311c305.246,-52.74 517.614,48.708 449.755,-45.661c-67.864,-94.369 -538.578,-921.398 -434.182,-1219.93c85.199,-243.639 838.128,-337.74 994.154,-269.458c148.219,64.863 471.282,1221.42 483.239,1256.64c23.393,68.884 86.82,204.707 179.066,61.65c136.134,-206.496 561.634,-243.965 670.265,-219.279c74.538,16.936 70.366,35.4 146.484,10.645c31.026,-10.09 39.58,-47.466 19.07,-72.835c-518.262,-640.925 -731.992,-1681.75 -562.744,-2529.37" style="fill-rule:nonzero;"/><path d="M4461.09,135.962c-849.611,145.708 -3370.34,1517.46 -3317.99,3720.37c-5.079,486.366 275.722,1914.63 351.312,2013.72c19.4,25.427 46.27,51.921 110.544,-8.914c101.633,-96.193 396.887,-185.47 613.205,-132.102c83.192,20.522 -107.87,-227.235 -240.794,-528.883c-84.927,-192.728 -204.149,-684.03 -163.102,-735.753c57.086,-71.926 728.17,-516.888 1189.35,-332.377c61.653,24.666 110.706,73.199 137.065,134.151c168.93,390.681 357.862,1189.52 382.361,1252.92c7.141,18.488 42.227,14.103 50.07,-2.561c43.235,-91.862 479.163,-309.721 769.441,-187.318c14.247,6.008 31.477,-15.173 18.104,-22.931c-336.746,-195.312 -1584.32,-2022.35 345.23,-4868.05c145.778,-214.995 -15.682,-308.041 -176.094,-308.041c-23.238,0 -46.449,1.948 -68.701,5.767Zm-2698.04,3476.64c-142.825,-942.198 1896.28,-2489.84 1918.09,-2505.99c73.638,-54.54 69.334,-9.923 42.048,22.714c-378.41,452.569 -699.149,2006.92 -843.079,2230.16c-70.227,108.918 -677.44,316.617 -966.294,316.648c-86.153,0.008 -143.926,-18.457 -150.76,-63.525Z" style="fill:url(#_Linear1);fill-rule:nonzero;"/><g><path d="M1532.92,2720.26c186.724,-559.984 899.363,-1311.85 1311.26,-1592.99" style="fill:none;fill-rule:nonzero;stroke:#fff;stroke-width:100px;"/><path d="M3063.7,1020.52c0,-32.882 -26.657,-59.543 -59.539,-59.543c-32.885,0 -59.542,26.661 -59.542,59.543c-0,32.882 26.657,59.539 59.542,59.539c32.882,0 59.539,-26.657 59.539,-59.539" style="fill:#fff;fill-rule:nonzero;"/></g></g><defs><linearGradient id="_Linear1" x1="0" y1="0" x2="1" y2="0" gradientUnits="userSpaceOnUse" gradientTransform="matrix(3271.84,-5667,5667,3271.84,1698.02,5996.84)"><stop offset="0" style="stop-color:#bf00a0;stop-opacity:1"/><stop offset="1" style="stop-color:#ff5252;stop-opacity:1"/></linearGradient></defs></svg>