<?xml version="1.0" encoding="UTF-8" standalone="no"?><!DOCTYPE svg PUBLIC "-//W3C//DTD SVG 1.1//EN" "http://www.w3.org/Graphics/SVG/1.1/DTD/svg11.dtd"><svg width="100%" height="100%" viewBox="0 0 6000 6000" version="1.1" xmlns="http://www.w3.org/2000/svg" xmlns:xlink="http://www.w3.org/1999/xlink" xml:space="preserve" xmlns:serif="http://www.serif.com/" style="fill-rule:evenodd;clip-rule:evenodd;stroke-linejoin:round;stroke-miterlimit:2;"><path id="paper" d="M5006.25,499.182c-0,-51.777 -41.973,-93.75 -93.75,-93.75l-3825,-0c-51.777,-0 -93.75,41.973 -93.75,93.75l0,1743.75c0,51.776 41.973,93.75 93.75,93.75l3825,-0c51.777,-0 93.75,-41.974 93.75,-93.75l-0,-1743.75Zm-187.5,93.75l0,1556.25c-0,-0 -3637.5,-0 -3637.5,-0c-0,-0 -0,-1556.25 -0,-1556.25c0,-0 3637.5,-0 3637.5,-0l0,-0Z" style="fill:#808080;"/><path id="printer" d="M1087.5,4722.69c51.777,0 93.75,-41.973 93.75,-93.75l-0,-745.238c526.538,-0 3110.96,-0 3637.5,-0c0,-0 0,745.238 0,745.238c0,51.777 41.973,93.75 93.75,93.75l993.75,0c51.777,0 93.75,-41.973 93.75,-93.75l0,-2386.01c0,-51.777 -41.973,-93.75 -93.75,-93.75l-5812.5,-0c-51.777,-0 -93.75,41.973 -93.75,93.75l0,2386.01c0,51.777 41.973,93.75 93.75,93.75l993.75,0Zm-93.75,-187.5l-806.25,0c-0,0 -0,-1767.83 -0,-2198.51c-0,-0 4883.95,-0 5625,-0c0,381.726 0,1816.79 0,2198.51c0,0 -806.25,0 -806.25,0c-0,0 -0,-745.238 -0,-745.238c-0,-51.777 -41.973,-93.75 -93.75,-93.75l-3825,-0c-51.777,-0 -93.75,41.973 -93.75,93.75l0,745.238Z" style="fill:#808080;"/><path id="printed-paper" serif:id="printed paper" d="M5006.25,3757.07c-0,-51.776 -41.973,-93.75 -93.75,-93.75l-3825,0c-51.777,0 -93.75,41.974 -93.75,93.75l0,1743.75c0,51.777 41.973,93.75 93.75,93.75l3825,0c51.777,0 93.75,-41.973 93.75,-93.75l-0,-1743.75Zm-187.5,93.75l0,1556.25c-0,0 -3637.5,0 -3637.5,0c-0,0 -0,-1206.8 -0,-1556.25c526.538,0 3110.96,0 3637.5,0l0,0Z" style="fill:#808080;"/><path id="light" d="M4518.75,3162.27l787.5,0c51.742,0 93.75,-42.008 93.75,-93.75c-0,-51.742 -42.008,-93.75 -93.75,-93.75l-787.5,0c-51.742,0 -93.75,42.008 -93.75,93.75c0,51.742 42.008,93.75 93.75,93.75Z" style="fill:#808080;"/><g id="printed-lines" serif:id="printed lines"><path d="M1532.65,4403.94l2934.71,0c51.742,0 93.75,-42.008 93.75,-93.75c-0,-51.742 -42.008,-93.75 -93.75,-93.75l-2934.71,0c-51.742,0 -93.75,42.008 -93.75,93.75c0,51.742 42.008,93.75 93.75,93.75Z" style="fill:#808080;"/><path d="M1532.65,5041.44l2934.71,0c51.742,0 93.75,-42.008 93.75,-93.75c-0,-51.742 -42.008,-93.75 -93.75,-93.75l-2934.71,0c-51.742,0 -93.75,42.008 -93.75,93.75c0,51.742 42.008,93.75 93.75,93.75Z" style="fill:#808080;"/></g></svg>